<svg xmlns="http://www.w3.org/2000/svg" width="1024" height="1024" viewBox="0 0 1024 1024">
  <defs>
    <radialGradient id="b1" cx="20%" cy="0%" r="70%"><stop stop-color="#58a6ff" stop-opacity=".42"/><stop offset="1" stop-color="#58a6ff" stop-opacity="0"/></radialGradient>
    <radialGradient id="b2" cx="86%" cy="8%" r="65%"><stop stop-color="#74ff7b" stop-opacity=".34"/><stop offset="1" stop-color="#74ff7b" stop-opacity="0"/></radialGradient>
    <linearGradient id="d" x1="210" y1="210" x2="800" y2="790" gradientUnits="userSpaceOnUse"><stop stop-color="#74ffdb"/><stop offset=".55" stop-color="#74ff7b"/><stop offset="1" stop-color="#58a6ff"/></linearGradient>
    <filter id="shadow" x="-20%" y="-20%" width="140%" height="140%"><feDropShadow dx="0" dy="32" stdDeviation="30" flood-color="#000" flood-opacity=".45"/></filter>
  </defs>
  <rect width="1024" height="1024" fill="#060912"/>
  <rect width="1024" height="1024" fill="url(#b1)"/>
  <rect width="1024" height="1024" fill="url(#b2)"/>
  <rect x="72" y="72" width="880" height="880" rx="220" fill="#060912" fill-opacity=".88" stroke="#74ffdb" stroke-opacity=".38" stroke-width="8"/>
  <path filter="url(#shadow)" d="M245 512c0-178 124-290 296-290h242v580H541C369 802 245 690 245 512Z" fill="url(#d)"/>
  <path d="M415 351h109c113 0 190 61 190 161s-77 161-190 161H415V351Zm103 221c43 0 74-23 74-60s-31-60-74-60h-6v120h6Z" fill="#06120f"/>
  <circle cx="790" cy="238" r="58" fill="#ffcc66"/>
</svg>
