<svg xmlns="http://www.w3.org/2000/svg" viewBox="0 0 64 64">
  <defs>
    <linearGradient id="g" x1="8" y1="6" x2="56" y2="58" gradientUnits="userSpaceOnUse">
      <stop stop-color="#74ffdb"/>
      <stop offset="0.52" stop-color="#74ff7b"/>
      <stop offset="1" stop-color="#58a6ff"/>
    </linearGradient>
    <filter id="s" x="-20%" y="-20%" width="140%" height="140%">
      <feDropShadow dx="0" dy="4" stdDeviation="4" flood-color="#000" flood-opacity="0.35"/>
    </filter>
  </defs>
  <rect width="64" height="64" rx="16" fill="#060912"/>
  <path d="M15 33c0-11 7.7-19 18.4-19H49v36H33.4C22.7 50 15 44 15 33Z" fill="url(#g)" filter="url(#s)"/>
  <path d="M27 23h6.8c5.1 0 8.7 3.5 8.7 9s-3.6 9-8.7 9H27V23Zm6.3 12.8c2.2 0 3.6-1.5 3.6-3.8s-1.4-3.8-3.6-3.8h-1.1v7.6h1.1Z" fill="#06120f"/>
  <circle cx="49" cy="16" r="4" fill="#ffcc66"/>
</svg>
