<svg xmlns="http://www.w3.org/2000/svg" width="1200" height="630" viewBox="0 0 1200 630" role="img" aria-label="Practical AI for one-person teams.">
  <defs>
    <linearGradient id="bg" x1="0" x2="1" y1="0" y2="1"><stop offset="0" stop-color="#060912"/><stop offset="0.52" stop-color="#0b1324"/><stop offset="1" stop-color="#08121d"/></linearGradient>
    <radialGradient id="glowA" cx="18%" cy="0%" r="55%"><stop offset="0" stop-color="#58a6ff" stop-opacity="0.36"/><stop offset="1" stop-color="#58a6ff" stop-opacity="0"/></radialGradient>
    <radialGradient id="glowB" cx="92%" cy="10%" r="48%"><stop offset="0" stop-color="#74ff7b" stop-opacity="0.24"/><stop offset="1" stop-color="#74ff7b" stop-opacity="0"/></radialGradient>
    <pattern id="grid" width="42" height="42" patternUnits="userSpaceOnUse"><path d="M 42 0 L 0 0 0 42" fill="none" stroke="#74ffdb" stroke-opacity="0.08" stroke-width="1"/></pattern>
    <filter id="shadow" x="-20%" y="-20%" width="140%" height="140%"><feDropShadow dx="0" dy="24" stdDeviation="32" flood-color="#000" flood-opacity="0.45"/></filter>
  </defs>
  <rect width="1200" height="630" fill="url(#bg)"/>
  <rect width="1200" height="630" fill="url(#grid)"/>
  <rect width="1200" height="630" fill="url(#glowA)"/>
  <rect width="1200" height="630" fill="url(#glowB)"/>
  <rect x="58" y="54" width="1084" height="522" rx="34" fill="rgba(16,27,48,0.92)" stroke="#74ffdb" stroke-opacity="0.35" filter="url(#shadow)"/>
  <rect x="58" y="54" width="1084" height="58" rx="34" fill="rgba(116,255,219,0.06)"/>
  <circle cx="104" cy="83" r="8" fill="#74ff7b"/><circle cx="130" cy="83" r="8" fill="#ffcc66"/><circle cx="156" cy="83" r="8" fill="#58a6ff"/>
  <text x="944" y="89" fill="#9eb0c2" font-family="ui-monospace, SFMono-Regular, Menlo, Consolas, monospace" font-size="18" text-anchor="end">dabblewith.ai</text>
  <rect x="92" y="145" width="260" height="42" rx="21" fill="rgba(116,255,219,0.08)" stroke="#74ffdb" stroke-opacity="0.9"/>
  <text x="114" y="172" fill="#74ffdb" font-family="ui-monospace, SFMono-Regular, Menlo, Consolas, monospace" font-size="16" font-weight="700" letter-spacing="1.6">NEWSLETTER ISSUE #001</text>
  <text x="92" y="266" fill="#f2fbff" font-family="Inter, ui-sans-serif, system-ui, -apple-system, Segoe UI, sans-serif" font-size="64" font-weight="900" letter-spacing="-2.5">Practical AI for one-person</text>
<text x="92" y="335" fill="#f2fbff" font-family="Inter, ui-sans-serif, system-ui, -apple-system, Segoe UI, sans-serif" font-size="64" font-weight="900" letter-spacing="-2.5">teams.</text>
  <text x="96" y="468" fill="#c9ddec" font-family="Inter, ui-sans-serif, system-ui, -apple-system, Segoe UI, sans-serif" font-size="28" font-weight="500" letter-spacing="0">Three workflows, two community asks, one honest</text>
<text x="96" y="505" fill="#c9ddec" font-family="Inter, ui-sans-serif, system-ui, -apple-system, Segoe UI, sans-serif" font-size="28" font-weight="500" letter-spacing="0">experiment update.</text>
  <rect x="92" y="520" width="230" height="38" rx="19" fill="rgba(116,255,123,0.10)" stroke="#74ff7b" stroke-opacity="0.52"/>
  <text x="114" y="545" fill="#74ff7b" font-family="ui-monospace, SFMono-Regular, Menlo, Consolas, monospace" font-size="15" font-weight="700">weekly workflows</text>
  <path d="M1000 432c38 0 70 31 70 70s-32 70-70 70-70-31-70-70 32-70 70-70zm0 24c-26 0-46 20-46 46s20 46 46 46 46-20 46-46-20-46-46-46z" fill="#74ffdb" fill-opacity="0.17"/>
  <path d="M988 490l46 13-46 13v-26z" fill="#74ff7b" fill-opacity="0.74"/>
</svg>
